<svg xmlns="http://www.w3.org/2000/svg" xmlns:xlink="http://www.w3.org/1999/xlink" style="display: none;">
    <symbol id="Facebook" viewBox="0 0 24 24">
        <rect stroke="none" fill="#000000" opacity="0"/>
        <g transform="matrix(1.11 0 0 1.11 12 12)">
            <path style="stroke: none; stroke-width: 1; stroke-dasharray: none; stroke-linecap: butt; stroke-dashoffset: 0; stroke-linejoin: miter; stroke-miterlimit: 4; fill: rgb(0,0,0); fill-rule: nonzero; opacity: 1;" transform="translate(-12, -12)" d="M 19 3 L 5 3 C 3.895 3 3 3.895 3 5 L 3 19 C 3 20.105 3.895 21 5 21 L 12.621 21 L 12.621 14.039 L 10.278 14.039 L 10.278 11.314 L 12.621 11.314 L 12.621 9.309 C 12.621 6.984999999999999 14.042 5.717999999999999 16.116 5.717999999999999 C 16.815 5.715999999999999 17.512999999999998 5.751999999999999 18.208 5.8229999999999995 L 18.208 8.253 L 16.779999999999998 8.253 C 15.649999999999999 8.253 15.429999999999998 8.787 15.429999999999998 9.575 L 15.429999999999998 11.309999999999999 L 18.13 11.309999999999999 L 17.779 14.034999999999998 L 15.414 14.034999999999998 L 15.414 21 L 19 21 C 20.105 21 21 20.105 21 19 L 21 5 C 21 3.895 20.105 3 19 3 z" stroke-linecap="round"/>
        </g>
    </symbol>
    <symbol id="Instagram" viewBox="0 0 24 24">
        <rect stroke="none" fill="#000000" opacity="0"/>
        <g transform="matrix(0.77 0 0 0.77 12 12)">
            <path style="stroke: none; stroke-width: 1; stroke-dasharray: none; stroke-linecap: butt; stroke-dashoffset: 0; stroke-linejoin: miter; stroke-miterlimit: 4; fill: rgb(0,0,0); fill-rule: nonzero; opacity: 1;" transform="translate(-13, -13)" d="M 7.546875 0 C 3.390625 0 0 3.390625 0 7.546875 L 0 18.453125 C 0 22.609375 3.390625 26 7.546875 26 L 18.453125 26 C 22.609375 26 26 22.609375 26 18.453125 L 26 7.546875 C 26 3.390625 22.609375 0 18.453125 0 Z M 7.546875 2 L 18.453125 2 C 21.527344 2 24 4.46875 24 7.546875 L 24 18.453125 C 24 21.527344 21.53125 24 18.453125 24 L 7.546875 24 C 4.472656 24 2 21.53125 2 18.453125 L 2 7.546875 C 2 4.472656 4.46875 2 7.546875 2 Z M 20.5 4 C 19.671875 4 19 4.671875 19 5.5 C 19 6.328125 19.671875 7 20.5 7 C 21.328125 7 22 6.328125 22 5.5 C 22 4.671875 21.328125 4 20.5 4 Z M 13 6 C 9.144531 6 6 9.144531 6 13 C 6 16.855469 9.144531 20 13 20 C 16.855469 20 20 16.855469 20 13 C 20 9.144531 16.855469 6 13 6 Z M 13 8 C 15.773438 8 18 10.226563 18 13 C 18 15.773438 15.773438 18 13 18 C 10.226563 18 8 15.773438 8 13 C 8 10.226563 10.226563 8 13 8 Z" stroke-linecap="round"/>
        </g>
    </symbol>
    <symbol id="LinkedIn" viewBox="0 0 24 24">
        <rect stroke="none" fill="#000000" opacity="0"/>
        <g transform="matrix(0.77 0 0 0.77 12 12)">
            <path style="stroke: none; stroke-width: 1; stroke-dasharray: none; stroke-linecap: butt; stroke-dashoffset: 0; stroke-linejoin: miter; stroke-miterlimit: 4; fill: rgb(0,0,0); fill-rule: nonzero; opacity: 1;" transform="translate(-13, -13)" d="M 21.125 0 L 4.875 0 C 2.183594 0 0 2.183594 0 4.875 L 0 21.125 C 0 23.816406 2.183594 26 4.875 26 L 21.125 26 C 23.816406 26 26 23.816406 26 21.125 L 26 4.875 C 26 2.183594 23.816406 0 21.125 0 Z M 8.039063 22.070313 L 4 22.070313 L 3.976563 9.976563 L 8.015625 9.976563 Z M 5.917969 8.394531 L 5.894531 8.394531 C 4.574219 8.394531 3.722656 7.484375 3.722656 6.351563 C 3.722656 5.191406 4.601563 4.3125 5.945313 4.3125 C 7.289063 4.3125 8.113281 5.191406 8.140625 6.351563 C 8.140625 7.484375 7.285156 8.394531 5.917969 8.394531 Z M 22.042969 22.070313 L 17.96875 22.070313 L 17.96875 15.5 C 17.96875 13.910156 17.546875 12.828125 16.125 12.828125 C 15.039063 12.828125 14.453125 13.558594 14.171875 14.265625 C 14.066406 14.519531 14.039063 14.867188 14.039063 15.222656 L 14.039063 22.070313 L 9.945313 22.070313 L 9.921875 9.976563 L 14.015625 9.976563 L 14.039063 11.683594 C 14.5625 10.875 15.433594 9.730469 17.519531 9.730469 C 20.105469 9.730469 22.039063 11.417969 22.039063 15.046875 L 22.039063 22.070313 Z" stroke-linecap="round"/>
        </g>
    </symbol>
    <symbol id="Twitter" viewBox="0 0 24 24">
        <rect stroke="none" fill="#000000" opacity="0"/>
        <g transform="matrix(0.78 0 0 0.78 12 12)">
            <path style="stroke: none; stroke-width: 1; stroke-dasharray: none; stroke-linecap: butt; stroke-dashoffset: 0; stroke-linejoin: miter; stroke-miterlimit: 4; fill: rgb(0,0,0); fill-rule: nonzero; opacity: 1;" transform="translate(-13.06, -13.51)" d="M 25.855469 5.574219 C 24.914063 5.992188 23.902344 6.273438 22.839844 6.402344 C 23.921875 5.75 24.757813 4.722656 25.148438 3.496094 C 24.132813 4.097656 23.007813 4.535156 21.8125 4.769531 C 20.855469 3.75 19.492188 3.113281 17.980469 3.113281 C 15.082031 3.113281 12.730469 5.464844 12.730469 8.363281 C 12.730469 8.773438 12.777344 9.175781 12.867188 9.558594 C 8.503906 9.339844 4.636719 7.246094 2.046875 4.070313 C 1.59375 4.847656 1.335938 5.75 1.335938 6.714844 C 1.335938 8.535156 2.261719 10.140625 3.671875 11.082031 C 2.808594 11.054688 2 10.820313 1.292969 10.425781 C 1.292969 10.449219 1.292969 10.46875 1.292969 10.492188 C 1.292969 13.035156 3.101563 15.15625 5.503906 15.640625 C 5.0625 15.761719 4.601563 15.824219 4.121094 15.824219 C 3.78125 15.824219 3.453125 15.792969 3.132813 15.730469 C 3.800781 17.8125 5.738281 19.335938 8.035156 19.375 C 6.242188 20.785156 3.976563 21.621094 1.515625 21.621094 C 1.089844 21.621094 0.675781 21.597656 0.265625 21.550781 C 2.585938 23.039063 5.347656 23.90625 8.3125 23.90625 C 17.96875 23.90625 23.25 15.90625 23.25 8.972656 C 23.25 8.742188 23.246094 8.515625 23.234375 8.289063 C 24.261719 7.554688 25.152344 6.628906 25.855469 5.574219" stroke-linecap="round"/>
        </g>
    </symbol>
</svg>